<?xml version="1.0" encoding="utf-8" standalone="no"?>
<!DOCTYPE svg PUBLIC "-//W3C//DTD SVG 1.1//EN"
  "http://www.w3.org/Graphics/SVG/1.1/DTD/svg11.dtd">
<svg xmlns:xlink="http://www.w3.org/1999/xlink" width="460.8pt" height="345.6pt" viewBox="0 0 460.8 345.6" xmlns="http://www.w3.org/2000/svg" version="1.1">
 <metadata>
  <rdf:RDF xmlns:dc="http://purl.org/dc/elements/1.1/" xmlns:cc="http://creativecommons.org/ns#" xmlns:rdf="http://www.w3.org/1999/02/22-rdf-syntax-ns#">
   <cc:Work>
    <dc:type rdf:resource="http://purl.org/dc/dcmitype/StillImage"/>
    <dc:date>2024-11-20T15:36:26.694636</dc:date>
    <dc:format>image/svg+xml</dc:format>
    <dc:creator>
     <cc:Agent>
      <dc:title>Matplotlib v3.9.2, https://matplotlib.org/</dc:title>
     </cc:Agent>
    </dc:creator>
   </cc:Work>
  </rdf:RDF>
 </metadata>
 <defs>
  <style type="text/css">*{stroke-linejoin: round; stroke-linecap: butt}</style>
 </defs>
 <g id="figure_1">
  <g id="patch_1">
   <path d="M 0 345.6 
L 460.8 345.6 
L 460.8 0 
L 0 0 
z
" style="fill: #ffffff"/>
  </g>
  <g id="axes_1">
   <g id="patch_2">
    <path d="M 57.6 307.584 
L 414.72 307.584 
L 414.72 41.472 
L 57.6 41.472 
z
" style="fill: #ffffff"/>
   </g>
   <g id="PathCollection_1">
    <defs>
     <path id="mc6abe55b74" d="M 0 3 
C 0.795609 3 1.55874 2.683901 2.12132 2.12132 
C 2.683901 1.55874 3 0.795609 3 0 
C 3 -0.795609 2.683901 -1.55874 2.12132 -2.12132 
C 1.55874 -2.683901 0.795609 -3 0 -3 
C -0.795609 -3 -1.55874 -2.683901 -2.12132 -2.12132 
C -2.683901 -1.55874 -3 -0.795609 -3 0 
C -3 0.795609 -2.683901 1.55874 -2.12132 2.12132 
C -1.55874 2.683901 -0.795609 3 0 3 
z
" style="stroke: #ffffff; stroke-width: 0.48"/>
    </defs>
    <g clip-path="url(#p3e7ddce1f7)">
     <use xlink:href="#mc6abe55b74" x="73.832727" y="191.130353" style="fill: #0000ff; stroke: #ffffff; stroke-width: 0.48"/>
     <use xlink:href="#mc6abe55b74" x="78.28005" y="132.099765" style="fill: #0000ff; stroke: #ffffff; stroke-width: 0.48"/>
     <use xlink:href="#mc6abe55b74" x="82.727372" y="116.815059" style="fill: #0000ff; stroke: #ffffff; stroke-width: 0.48"/>
     <use xlink:href="#mc6abe55b74" x="87.174695" y="106.800941" style="fill: #0000ff; stroke: #ffffff; stroke-width: 0.48"/>
     <use xlink:href="#mc6abe55b74" x="91.622017" y="98.368" style="fill: #0000ff; stroke: #ffffff; stroke-width: 0.48"/>
     <use xlink:href="#mc6abe55b74" x="96.06934" y="78.866824" style="fill: #0000ff; stroke: #ffffff; stroke-width: 0.48"/>
     <use xlink:href="#mc6abe55b74" x="100.516663" y="58.311529" style="fill: #0000ff; stroke: #ffffff; stroke-width: 0.48"/>
     <use xlink:href="#mc6abe55b74" x="104.963985" y="81.502118" style="fill: #0000ff; stroke: #ffffff; stroke-width: 0.48"/>
     <use xlink:href="#mc6abe55b74" x="109.411308" y="109.963294" style="fill: #0000ff; stroke: #ffffff; stroke-width: 0.48"/>
     <use xlink:href="#mc6abe55b74" x="113.85863" y="102.584471" style="fill: #0000ff; stroke: #ffffff; stroke-width: 0.48"/>
     <use xlink:href="#mc6abe55b74" x="118.305953" y="87.299765" style="fill: #0000ff; stroke: #ffffff; stroke-width: 0.48"/>
     <use xlink:href="#mc6abe55b74" x="122.753275" y="78.866824" style="fill: #0000ff; stroke: #ffffff; stroke-width: 0.48"/>
     <use xlink:href="#mc6abe55b74" x="127.200598" y="80.448" style="fill: #0000ff; stroke: #ffffff; stroke-width: 0.48"/>
     <use xlink:href="#mc6abe55b74" x="131.64792" y="76.758588" style="fill: #0000ff; stroke: #ffffff; stroke-width: 0.48"/>
     <use xlink:href="#mc6abe55b74" x="136.095243" y="66.217412" style="fill: #0000ff; stroke: #ffffff; stroke-width: 0.48"/>
     <use xlink:href="#mc6abe55b74" x="140.542565" y="72.542118" style="fill: #0000ff; stroke: #ffffff; stroke-width: 0.48"/>
     <use xlink:href="#mc6abe55b74" x="144.989888" y="54.095059" style="fill: #0000ff; stroke: #ffffff; stroke-width: 0.48"/>
     <use xlink:href="#mc6abe55b74" x="149.43721" y="76.758588" style="fill: #0000ff; stroke: #ffffff; stroke-width: 0.48"/>
     <use xlink:href="#mc6abe55b74" x="153.884533" y="53.568" style="fill: #0000ff; stroke: #ffffff; stroke-width: 0.48"/>
     <use xlink:href="#mc6abe55b74" x="158.331856" y="59.365647" style="fill: #0000ff; stroke: #ffffff; stroke-width: 0.48"/>
     <use xlink:href="#mc6abe55b74" x="162.779178" y="74.123294" style="fill: #0000ff; stroke: #ffffff; stroke-width: 0.48"/>
     <use xlink:href="#mc6abe55b74" x="167.226501" y="66.217412" style="fill: #0000ff; stroke: #ffffff; stroke-width: 0.48"/>
     <use xlink:href="#mc6abe55b74" x="171.673823" y="90.989176" style="fill: #0000ff; stroke: #ffffff; stroke-width: 0.48"/>
     <use xlink:href="#mc6abe55b74" x="176.121146" y="89.408" style="fill: #0000ff; stroke: #ffffff; stroke-width: 0.48"/>
     <use xlink:href="#mc6abe55b74" x="180.568468" y="71.488" style="fill: #0000ff; stroke: #ffffff; stroke-width: 0.48"/>
     <use xlink:href="#mc6abe55b74" x="185.015791" y="93.624471" style="fill: #0000ff; stroke: #ffffff; stroke-width: 0.48"/>
     <use xlink:href="#mc6abe55b74" x="189.463113" y="120.504471" style="fill: #0000ff; stroke: #ffffff; stroke-width: 0.48"/>
     <use xlink:href="#mc6abe55b74" x="193.910436" y="115.760941" style="fill: #0000ff; stroke: #ffffff; stroke-width: 0.48"/>
     <use xlink:href="#mc6abe55b74" x="198.357758" y="105.746824" style="fill: #0000ff; stroke: #ffffff; stroke-width: 0.48"/>
     <use xlink:href="#mc6abe55b74" x="202.805081" y="106.800941" style="fill: #0000ff; stroke: #ffffff; stroke-width: 0.48"/>
     <use xlink:href="#mc6abe55b74" x="207.252403" y="99.949176" style="fill: #0000ff; stroke: #ffffff; stroke-width: 0.48"/>
     <use xlink:href="#mc6abe55b74" x="211.699726" y="137.370353" style="fill: #0000ff; stroke: #ffffff; stroke-width: 0.48"/>
     <use xlink:href="#mc6abe55b74" x="216.147049" y="154.236235" style="fill: #0000ff; stroke: #ffffff; stroke-width: 0.48"/>
     <use xlink:href="#mc6abe55b74" x="220.594371" y="157.398588" style="fill: #0000ff; stroke: #ffffff; stroke-width: 0.48"/>
     <use xlink:href="#mc6abe55b74" x="225.041694" y="147.911529" style="fill: #0000ff; stroke: #ffffff; stroke-width: 0.48"/>
     <use xlink:href="#mc6abe55b74" x="229.489016" y="159.506824" style="fill: #0000ff; stroke: #ffffff; stroke-width: 0.48"/>
     <use xlink:href="#mc6abe55b74" x="233.936339" y="166.358588" style="fill: #0000ff; stroke: #ffffff; stroke-width: 0.48"/>
     <use xlink:href="#mc6abe55b74" x="238.383661" y="192.184471" style="fill: #0000ff; stroke: #ffffff; stroke-width: 0.48"/>
     <use xlink:href="#mc6abe55b74" x="242.830984" y="190.076235" style="fill: #0000ff; stroke: #ffffff; stroke-width: 0.48"/>
     <use xlink:href="#mc6abe55b74" x="247.278306" y="192.184471" style="fill: #0000ff; stroke: #ffffff; stroke-width: 0.48"/>
     <use xlink:href="#mc6abe55b74" x="251.725629" y="194.819765" style="fill: #0000ff; stroke: #ffffff; stroke-width: 0.48"/>
     <use xlink:href="#mc6abe55b74" x="256.172951" y="196.928" style="fill: #0000ff; stroke: #ffffff; stroke-width: 0.48"/>
     <use xlink:href="#mc6abe55b74" x="260.620274" y="207.996235" style="fill: #0000ff; stroke: #ffffff; stroke-width: 0.48"/>
     <use xlink:href="#mc6abe55b74" x="265.067597" y="224.335059" style="fill: #0000ff; stroke: #ffffff; stroke-width: 0.48"/>
     <use xlink:href="#mc6abe55b74" x="269.514919" y="217.483294" style="fill: #0000ff; stroke: #ffffff; stroke-width: 0.48"/>
     <use xlink:href="#mc6abe55b74" x="273.962242" y="224.862118" style="fill: #0000ff; stroke: #ffffff; stroke-width: 0.48"/>
     <use xlink:href="#mc6abe55b74" x="278.409564" y="241.200941" style="fill: #0000ff; stroke: #ffffff; stroke-width: 0.48"/>
     <use xlink:href="#mc6abe55b74" x="282.856887" y="226.970353" style="fill: #0000ff; stroke: #ffffff; stroke-width: 0.48"/>
     <use xlink:href="#mc6abe55b74" x="287.304209" y="240.673882" style="fill: #0000ff; stroke: #ffffff; stroke-width: 0.48"/>
     <use xlink:href="#mc6abe55b74" x="291.751532" y="250.688" style="fill: #0000ff; stroke: #ffffff; stroke-width: 0.48"/>
     <use xlink:href="#mc6abe55b74" x="296.198854" y="250.688" style="fill: #0000ff; stroke: #ffffff; stroke-width: 0.48"/>
     <use xlink:href="#mc6abe55b74" x="300.646177" y="265.972706" style="fill: #0000ff; stroke: #ffffff; stroke-width: 0.48"/>
     <use xlink:href="#mc6abe55b74" x="305.093499" y="274.932706" style="fill: #0000ff; stroke: #ffffff; stroke-width: 0.48"/>
     <use xlink:href="#mc6abe55b74" x="309.540822" y="273.351529" style="fill: #0000ff; stroke: #ffffff; stroke-width: 0.48"/>
     <use xlink:href="#mc6abe55b74" x="313.988144" y="272.297412" style="fill: #0000ff; stroke: #ffffff; stroke-width: 0.48"/>
     <use xlink:href="#mc6abe55b74" x="318.435467" y="268.608" style="fill: #0000ff; stroke: #ffffff; stroke-width: 0.48"/>
     <use xlink:href="#mc6abe55b74" x="322.88279" y="273.351529" style="fill: #0000ff; stroke: #ffffff; stroke-width: 0.48"/>
     <use xlink:href="#mc6abe55b74" x="327.330112" y="282.838588" style="fill: #0000ff; stroke: #ffffff; stroke-width: 0.48"/>
     <use xlink:href="#mc6abe55b74" x="331.777435" y="282.311529" style="fill: #0000ff; stroke: #ffffff; stroke-width: 0.48"/>
     <use xlink:href="#mc6abe55b74" x="336.224757" y="284.419765" style="fill: #0000ff; stroke: #ffffff; stroke-width: 0.48"/>
     <use xlink:href="#mc6abe55b74" x="340.67208" y="283.365647" style="fill: #0000ff; stroke: #ffffff; stroke-width: 0.48"/>
     <use xlink:href="#mc6abe55b74" x="345.119402" y="290.744471" style="fill: #0000ff; stroke: #ffffff; stroke-width: 0.48"/>
     <use xlink:href="#mc6abe55b74" x="349.566725" y="292.325647" style="fill: #0000ff; stroke: #ffffff; stroke-width: 0.48"/>
     <use xlink:href="#mc6abe55b74" x="354.014047" y="288.109176" style="fill: #0000ff; stroke: #ffffff; stroke-width: 0.48"/>
     <use xlink:href="#mc6abe55b74" x="358.46137" y="287.582118" style="fill: #0000ff; stroke: #ffffff; stroke-width: 0.48"/>
     <use xlink:href="#mc6abe55b74" x="362.908692" y="294.960941" style="fill: #0000ff; stroke: #ffffff; stroke-width: 0.48"/>
     <use xlink:href="#mc6abe55b74" x="367.356015" y="293.906824" style="fill: #0000ff; stroke: #ffffff; stroke-width: 0.48"/>
     <use xlink:href="#mc6abe55b74" x="371.803337" y="294.960941" style="fill: #0000ff; stroke: #ffffff; stroke-width: 0.48"/>
     <use xlink:href="#mc6abe55b74" x="376.25066" y="295.488" style="fill: #0000ff; stroke: #ffffff; stroke-width: 0.48"/>
     <use xlink:href="#mc6abe55b74" x="385.145305" y="295.488" style="fill: #0000ff; stroke: #ffffff; stroke-width: 0.48"/>
     <use xlink:href="#mc6abe55b74" x="389.592628" y="294.960941" style="fill: #0000ff; stroke: #ffffff; stroke-width: 0.48"/>
     <use xlink:href="#mc6abe55b74" x="394.03995" y="295.488" style="fill: #0000ff; stroke: #ffffff; stroke-width: 0.48"/>
     <use xlink:href="#mc6abe55b74" x="398.487273" y="290.217412" style="fill: #0000ff; stroke: #ffffff; stroke-width: 0.48"/>
    </g>
   </g>
   <g id="PolyCollection_1"/>
   <g id="matplotlib.axis_1">
    <g id="xtick_1">
     <g id="line2d_1">
      <defs>
       <path id="m6c76dbf26e" d="M 0 0 
L 0 3.5 
" style="stroke: #000000; stroke-width: 0.8"/>
      </defs>
      <g>
       <use xlink:href="#m6c76dbf26e" x="87.174695" y="307.584" style="stroke: #000000; stroke-width: 0.8"/>
      </g>
     </g>
     <g id="text_1">
      <!-- 20 -->
      <g transform="translate(80.812195 322.182437) scale(0.1 -0.1)">
       <defs>
        <path id="DejaVuSans-32" d="M 1228 531 
L 3431 531 
L 3431 0 
L 469 0 
L 469 531 
Q 828 903 1448 1529 
Q 2069 2156 2228 2338 
Q 2531 2678 2651 2914 
Q 2772 3150 2772 3378 
Q 2772 3750 2511 3984 
Q 2250 4219 1831 4219 
Q 1534 4219 1204 4116 
Q 875 4013 500 3803 
L 500 4441 
Q 881 4594 1212 4672 
Q 1544 4750 1819 4750 
Q 2544 4750 2975 4387 
Q 3406 4025 3406 3419 
Q 3406 3131 3298 2873 
Q 3191 2616 2906 2266 
Q 2828 2175 2409 1742 
Q 1991 1309 1228 531 
z
" transform="scale(0.015625)"/>
        <path id="DejaVuSans-30" d="M 2034 4250 
Q 1547 4250 1301 3770 
Q 1056 3291 1056 2328 
Q 1056 1369 1301 889 
Q 1547 409 2034 409 
Q 2525 409 2770 889 
Q 3016 1369 3016 2328 
Q 3016 3291 2770 3770 
Q 2525 4250 2034 4250 
z
M 2034 4750 
Q 2819 4750 3233 4129 
Q 3647 3509 3647 2328 
Q 3647 1150 3233 529 
Q 2819 -91 2034 -91 
Q 1250 -91 836 529 
Q 422 1150 422 2328 
Q 422 3509 836 4129 
Q 1250 4750 2034 4750 
z
" transform="scale(0.015625)"/>
       </defs>
       <use xlink:href="#DejaVuSans-32"/>
       <use xlink:href="#DejaVuSans-30" x="63.623047"/>
      </g>
     </g>
    </g>
    <g id="xtick_2">
     <g id="line2d_2">
      <g>
       <use xlink:href="#m6c76dbf26e" x="131.64792" y="307.584" style="stroke: #000000; stroke-width: 0.8"/>
      </g>
     </g>
     <g id="text_2">
      <!-- 30 -->
      <g transform="translate(125.28542 322.182437) scale(0.1 -0.1)">
       <defs>
        <path id="DejaVuSans-33" d="M 2597 2516 
Q 3050 2419 3304 2112 
Q 3559 1806 3559 1356 
Q 3559 666 3084 287 
Q 2609 -91 1734 -91 
Q 1441 -91 1130 -33 
Q 819 25 488 141 
L 488 750 
Q 750 597 1062 519 
Q 1375 441 1716 441 
Q 2309 441 2620 675 
Q 2931 909 2931 1356 
Q 2931 1769 2642 2001 
Q 2353 2234 1838 2234 
L 1294 2234 
L 1294 2753 
L 1863 2753 
Q 2328 2753 2575 2939 
Q 2822 3125 2822 3475 
Q 2822 3834 2567 4026 
Q 2313 4219 1838 4219 
Q 1578 4219 1281 4162 
Q 984 4106 628 3988 
L 628 4550 
Q 988 4650 1302 4700 
Q 1616 4750 1894 4750 
Q 2613 4750 3031 4423 
Q 3450 4097 3450 3541 
Q 3450 3153 3228 2886 
Q 3006 2619 2597 2516 
z
" transform="scale(0.015625)"/>
       </defs>
       <use xlink:href="#DejaVuSans-33"/>
       <use xlink:href="#DejaVuSans-30" x="63.623047"/>
      </g>
     </g>
    </g>
    <g id="xtick_3">
     <g id="line2d_3">
      <g>
       <use xlink:href="#m6c76dbf26e" x="176.121146" y="307.584" style="stroke: #000000; stroke-width: 0.8"/>
      </g>
     </g>
     <g id="text_3">
      <!-- 40 -->
      <g transform="translate(169.758646 322.182437) scale(0.1 -0.1)">
       <defs>
        <path id="DejaVuSans-34" d="M 2419 4116 
L 825 1625 
L 2419 1625 
L 2419 4116 
z
M 2253 4666 
L 3047 4666 
L 3047 1625 
L 3713 1625 
L 3713 1100 
L 3047 1100 
L 3047 0 
L 2419 0 
L 2419 1100 
L 313 1100 
L 313 1709 
L 2253 4666 
z
" transform="scale(0.015625)"/>
       </defs>
       <use xlink:href="#DejaVuSans-34"/>
       <use xlink:href="#DejaVuSans-30" x="63.623047"/>
      </g>
     </g>
    </g>
    <g id="xtick_4">
     <g id="line2d_4">
      <g>
       <use xlink:href="#m6c76dbf26e" x="220.594371" y="307.584" style="stroke: #000000; stroke-width: 0.8"/>
      </g>
     </g>
     <g id="text_4">
      <!-- 50 -->
      <g transform="translate(214.231871 322.182437) scale(0.1 -0.1)">
       <defs>
        <path id="DejaVuSans-35" d="M 691 4666 
L 3169 4666 
L 3169 4134 
L 1269 4134 
L 1269 2991 
Q 1406 3038 1543 3061 
Q 1681 3084 1819 3084 
Q 2600 3084 3056 2656 
Q 3513 2228 3513 1497 
Q 3513 744 3044 326 
Q 2575 -91 1722 -91 
Q 1428 -91 1123 -41 
Q 819 9 494 109 
L 494 744 
Q 775 591 1075 516 
Q 1375 441 1709 441 
Q 2250 441 2565 725 
Q 2881 1009 2881 1497 
Q 2881 1984 2565 2268 
Q 2250 2553 1709 2553 
Q 1456 2553 1204 2497 
Q 953 2441 691 2322 
L 691 4666 
z
" transform="scale(0.015625)"/>
       </defs>
       <use xlink:href="#DejaVuSans-35"/>
       <use xlink:href="#DejaVuSans-30" x="63.623047"/>
      </g>
     </g>
    </g>
    <g id="xtick_5">
     <g id="line2d_5">
      <g>
       <use xlink:href="#m6c76dbf26e" x="265.067597" y="307.584" style="stroke: #000000; stroke-width: 0.8"/>
      </g>
     </g>
     <g id="text_5">
      <!-- 60 -->
      <g transform="translate(258.705097 322.182437) scale(0.1 -0.1)">
       <defs>
        <path id="DejaVuSans-36" d="M 2113 2584 
Q 1688 2584 1439 2293 
Q 1191 2003 1191 1497 
Q 1191 994 1439 701 
Q 1688 409 2113 409 
Q 2538 409 2786 701 
Q 3034 994 3034 1497 
Q 3034 2003 2786 2293 
Q 2538 2584 2113 2584 
z
M 3366 4563 
L 3366 3988 
Q 3128 4100 2886 4159 
Q 2644 4219 2406 4219 
Q 1781 4219 1451 3797 
Q 1122 3375 1075 2522 
Q 1259 2794 1537 2939 
Q 1816 3084 2150 3084 
Q 2853 3084 3261 2657 
Q 3669 2231 3669 1497 
Q 3669 778 3244 343 
Q 2819 -91 2113 -91 
Q 1303 -91 875 529 
Q 447 1150 447 2328 
Q 447 3434 972 4092 
Q 1497 4750 2381 4750 
Q 2619 4750 2861 4703 
Q 3103 4656 3366 4563 
z
" transform="scale(0.015625)"/>
       </defs>
       <use xlink:href="#DejaVuSans-36"/>
       <use xlink:href="#DejaVuSans-30" x="63.623047"/>
      </g>
     </g>
    </g>
    <g id="xtick_6">
     <g id="line2d_6">
      <g>
       <use xlink:href="#m6c76dbf26e" x="309.540822" y="307.584" style="stroke: #000000; stroke-width: 0.8"/>
      </g>
     </g>
     <g id="text_6">
      <!-- 70 -->
      <g transform="translate(303.178322 322.182437) scale(0.1 -0.1)">
       <defs>
        <path id="DejaVuSans-37" d="M 525 4666 
L 3525 4666 
L 3525 4397 
L 1831 0 
L 1172 0 
L 2766 4134 
L 525 4134 
L 525 4666 
z
" transform="scale(0.015625)"/>
       </defs>
       <use xlink:href="#DejaVuSans-37"/>
       <use xlink:href="#DejaVuSans-30" x="63.623047"/>
      </g>
     </g>
    </g>
    <g id="xtick_7">
     <g id="line2d_7">
      <g>
       <use xlink:href="#m6c76dbf26e" x="354.014047" y="307.584" style="stroke: #000000; stroke-width: 0.8"/>
      </g>
     </g>
     <g id="text_7">
      <!-- 80 -->
      <g transform="translate(347.651547 322.182437) scale(0.1 -0.1)">
       <defs>
        <path id="DejaVuSans-38" d="M 2034 2216 
Q 1584 2216 1326 1975 
Q 1069 1734 1069 1313 
Q 1069 891 1326 650 
Q 1584 409 2034 409 
Q 2484 409 2743 651 
Q 3003 894 3003 1313 
Q 3003 1734 2745 1975 
Q 2488 2216 2034 2216 
z
M 1403 2484 
Q 997 2584 770 2862 
Q 544 3141 544 3541 
Q 544 4100 942 4425 
Q 1341 4750 2034 4750 
Q 2731 4750 3128 4425 
Q 3525 4100 3525 3541 
Q 3525 3141 3298 2862 
Q 3072 2584 2669 2484 
Q 3125 2378 3379 2068 
Q 3634 1759 3634 1313 
Q 3634 634 3220 271 
Q 2806 -91 2034 -91 
Q 1263 -91 848 271 
Q 434 634 434 1313 
Q 434 1759 690 2068 
Q 947 2378 1403 2484 
z
M 1172 3481 
Q 1172 3119 1398 2916 
Q 1625 2713 2034 2713 
Q 2441 2713 2670 2916 
Q 2900 3119 2900 3481 
Q 2900 3844 2670 4047 
Q 2441 4250 2034 4250 
Q 1625 4250 1398 4047 
Q 1172 3844 1172 3481 
z
" transform="scale(0.015625)"/>
       </defs>
       <use xlink:href="#DejaVuSans-38"/>
       <use xlink:href="#DejaVuSans-30" x="63.623047"/>
      </g>
     </g>
    </g>
    <g id="xtick_8">
     <g id="line2d_8">
      <g>
       <use xlink:href="#m6c76dbf26e" x="398.487273" y="307.584" style="stroke: #000000; stroke-width: 0.8"/>
      </g>
     </g>
     <g id="text_8">
      <!-- 90 -->
      <g transform="translate(392.124773 322.182437) scale(0.1 -0.1)">
       <defs>
        <path id="DejaVuSans-39" d="M 703 97 
L 703 672 
Q 941 559 1184 500 
Q 1428 441 1663 441 
Q 2288 441 2617 861 
Q 2947 1281 2994 2138 
Q 2813 1869 2534 1725 
Q 2256 1581 1919 1581 
Q 1219 1581 811 2004 
Q 403 2428 403 3163 
Q 403 3881 828 4315 
Q 1253 4750 1959 4750 
Q 2769 4750 3195 4129 
Q 3622 3509 3622 2328 
Q 3622 1225 3098 567 
Q 2575 -91 1691 -91 
Q 1453 -91 1209 -44 
Q 966 3 703 97 
z
M 1959 2075 
Q 2384 2075 2632 2365 
Q 2881 2656 2881 3163 
Q 2881 3666 2632 3958 
Q 2384 4250 1959 4250 
Q 1534 4250 1286 3958 
Q 1038 3666 1038 3163 
Q 1038 2656 1286 2365 
Q 1534 2075 1959 2075 
z
" transform="scale(0.015625)"/>
       </defs>
       <use xlink:href="#DejaVuSans-39"/>
       <use xlink:href="#DejaVuSans-30" x="63.623047"/>
      </g>
     </g>
    </g>
    <g id="text_9">
     <!-- Age -->
     <g transform="translate(226.488906 335.860562) scale(0.1 -0.1)">
      <defs>
       <path id="DejaVuSans-41" d="M 2188 4044 
L 1331 1722 
L 3047 1722 
L 2188 4044 
z
M 1831 4666 
L 2547 4666 
L 4325 0 
L 3669 0 
L 3244 1197 
L 1141 1197 
L 716 0 
L 50 0 
L 1831 4666 
z
" transform="scale(0.015625)"/>
       <path id="DejaVuSans-67" d="M 2906 1791 
Q 2906 2416 2648 2759 
Q 2391 3103 1925 3103 
Q 1463 3103 1205 2759 
Q 947 2416 947 1791 
Q 947 1169 1205 825 
Q 1463 481 1925 481 
Q 2391 481 2648 825 
Q 2906 1169 2906 1791 
z
M 3481 434 
Q 3481 -459 3084 -895 
Q 2688 -1331 1869 -1331 
Q 1566 -1331 1297 -1286 
Q 1028 -1241 775 -1147 
L 775 -588 
Q 1028 -725 1275 -790 
Q 1522 -856 1778 -856 
Q 2344 -856 2625 -561 
Q 2906 -266 2906 331 
L 2906 616 
Q 2728 306 2450 153 
Q 2172 0 1784 0 
Q 1141 0 747 490 
Q 353 981 353 1791 
Q 353 2603 747 3093 
Q 1141 3584 1784 3584 
Q 2172 3584 2450 3431 
Q 2728 3278 2906 2969 
L 2906 3500 
L 3481 3500 
L 3481 434 
z
" transform="scale(0.015625)"/>
       <path id="DejaVuSans-65" d="M 3597 1894 
L 3597 1613 
L 953 1613 
Q 991 1019 1311 708 
Q 1631 397 2203 397 
Q 2534 397 2845 478 
Q 3156 559 3463 722 
L 3463 178 
Q 3153 47 2828 -22 
Q 2503 -91 2169 -91 
Q 1331 -91 842 396 
Q 353 884 353 1716 
Q 353 2575 817 3079 
Q 1281 3584 2069 3584 
Q 2775 3584 3186 3129 
Q 3597 2675 3597 1894 
z
M 3022 2063 
Q 3016 2534 2758 2815 
Q 2500 3097 2075 3097 
Q 1594 3097 1305 2825 
Q 1016 2553 972 2059 
L 3022 2063 
z
" transform="scale(0.015625)"/>
      </defs>
      <use xlink:href="#DejaVuSans-41"/>
      <use xlink:href="#DejaVuSans-67" x="68.408203"/>
      <use xlink:href="#DejaVuSans-65" x="131.884766"/>
     </g>
    </g>
   </g>
   <g id="matplotlib.axis_2">
    <g id="ytick_1">
     <g id="line2d_9">
      <defs>
       <path id="m367543f84a" d="M 0 0 
L -3.5 0 
" style="stroke: #000000; stroke-width: 0.8"/>
      </defs>
      <g>
       <use xlink:href="#m367543f84a" x="57.6" y="296.542118" style="stroke: #000000; stroke-width: 0.8"/>
      </g>
     </g>
     <g id="text_10">
      <!-- 0 -->
      <g transform="translate(44.2375 300.341336) scale(0.1 -0.1)">
       <use xlink:href="#DejaVuSans-30"/>
      </g>
     </g>
    </g>
    <g id="ytick_2">
     <g id="line2d_10">
      <g>
       <use xlink:href="#m367543f84a" x="57.6" y="243.836235" style="stroke: #000000; stroke-width: 0.8"/>
      </g>
     </g>
     <g id="text_11">
      <!-- 100 -->
      <g transform="translate(31.5125 247.635454) scale(0.1 -0.1)">
       <defs>
        <path id="DejaVuSans-31" d="M 794 531 
L 1825 531 
L 1825 4091 
L 703 3866 
L 703 4441 
L 1819 4666 
L 2450 4666 
L 2450 531 
L 3481 531 
L 3481 0 
L 794 0 
L 794 531 
z
" transform="scale(0.015625)"/>
       </defs>
       <use xlink:href="#DejaVuSans-31"/>
       <use xlink:href="#DejaVuSans-30" x="63.623047"/>
       <use xlink:href="#DejaVuSans-30" x="127.246094"/>
      </g>
     </g>
    </g>
    <g id="ytick_3">
     <g id="line2d_11">
      <g>
       <use xlink:href="#m367543f84a" x="57.6" y="191.130353" style="stroke: #000000; stroke-width: 0.8"/>
      </g>
     </g>
     <g id="text_12">
      <!-- 200 -->
      <g transform="translate(31.5125 194.929572) scale(0.1 -0.1)">
       <use xlink:href="#DejaVuSans-32"/>
       <use xlink:href="#DejaVuSans-30" x="63.623047"/>
       <use xlink:href="#DejaVuSans-30" x="127.246094"/>
      </g>
     </g>
    </g>
    <g id="ytick_4">
     <g id="line2d_12">
      <g>
       <use xlink:href="#m367543f84a" x="57.6" y="138.424471" style="stroke: #000000; stroke-width: 0.8"/>
      </g>
     </g>
     <g id="text_13">
      <!-- 300 -->
      <g transform="translate(31.5125 142.223689) scale(0.1 -0.1)">
       <use xlink:href="#DejaVuSans-33"/>
       <use xlink:href="#DejaVuSans-30" x="63.623047"/>
       <use xlink:href="#DejaVuSans-30" x="127.246094"/>
      </g>
     </g>
    </g>
    <g id="ytick_5">
     <g id="line2d_13">
      <g>
       <use xlink:href="#m367543f84a" x="57.6" y="85.718588" style="stroke: #000000; stroke-width: 0.8"/>
      </g>
     </g>
     <g id="text_14">
      <!-- 400 -->
      <g transform="translate(31.5125 89.517807) scale(0.1 -0.1)">
       <use xlink:href="#DejaVuSans-34"/>
       <use xlink:href="#DejaVuSans-30" x="63.623047"/>
       <use xlink:href="#DejaVuSans-30" x="127.246094"/>
      </g>
     </g>
    </g>
    <g id="text_15">
     <!-- Amount -->
     <g transform="translate(25.432812 194.175656) rotate(-90) scale(0.1 -0.1)">
      <defs>
       <path id="DejaVuSans-6d" d="M 3328 2828 
Q 3544 3216 3844 3400 
Q 4144 3584 4550 3584 
Q 5097 3584 5394 3201 
Q 5691 2819 5691 2113 
L 5691 0 
L 5113 0 
L 5113 2094 
Q 5113 2597 4934 2840 
Q 4756 3084 4391 3084 
Q 3944 3084 3684 2787 
Q 3425 2491 3425 1978 
L 3425 0 
L 2847 0 
L 2847 2094 
Q 2847 2600 2669 2842 
Q 2491 3084 2119 3084 
Q 1678 3084 1418 2786 
Q 1159 2488 1159 1978 
L 1159 0 
L 581 0 
L 581 3500 
L 1159 3500 
L 1159 2956 
Q 1356 3278 1631 3431 
Q 1906 3584 2284 3584 
Q 2666 3584 2933 3390 
Q 3200 3197 3328 2828 
z
" transform="scale(0.015625)"/>
       <path id="DejaVuSans-6f" d="M 1959 3097 
Q 1497 3097 1228 2736 
Q 959 2375 959 1747 
Q 959 1119 1226 758 
Q 1494 397 1959 397 
Q 2419 397 2687 759 
Q 2956 1122 2956 1747 
Q 2956 2369 2687 2733 
Q 2419 3097 1959 3097 
z
M 1959 3584 
Q 2709 3584 3137 3096 
Q 3566 2609 3566 1747 
Q 3566 888 3137 398 
Q 2709 -91 1959 -91 
Q 1206 -91 779 398 
Q 353 888 353 1747 
Q 353 2609 779 3096 
Q 1206 3584 1959 3584 
z
" transform="scale(0.015625)"/>
       <path id="DejaVuSans-75" d="M 544 1381 
L 544 3500 
L 1119 3500 
L 1119 1403 
Q 1119 906 1312 657 
Q 1506 409 1894 409 
Q 2359 409 2629 706 
Q 2900 1003 2900 1516 
L 2900 3500 
L 3475 3500 
L 3475 0 
L 2900 0 
L 2900 538 
Q 2691 219 2414 64 
Q 2138 -91 1772 -91 
Q 1169 -91 856 284 
Q 544 659 544 1381 
z
M 1991 3584 
L 1991 3584 
z
" transform="scale(0.015625)"/>
       <path id="DejaVuSans-6e" d="M 3513 2113 
L 3513 0 
L 2938 0 
L 2938 2094 
Q 2938 2591 2744 2837 
Q 2550 3084 2163 3084 
Q 1697 3084 1428 2787 
Q 1159 2491 1159 1978 
L 1159 0 
L 581 0 
L 581 3500 
L 1159 3500 
L 1159 2956 
Q 1366 3272 1645 3428 
Q 1925 3584 2291 3584 
Q 2894 3584 3203 3211 
Q 3513 2838 3513 2113 
z
" transform="scale(0.015625)"/>
       <path id="DejaVuSans-74" d="M 1172 4494 
L 1172 3500 
L 2356 3500 
L 2356 3053 
L 1172 3053 
L 1172 1153 
Q 1172 725 1289 603 
Q 1406 481 1766 481 
L 2356 481 
L 2356 0 
L 1766 0 
Q 1100 0 847 248 
Q 594 497 594 1153 
L 594 3053 
L 172 3053 
L 172 3500 
L 594 3500 
L 594 4494 
L 1172 4494 
z
" transform="scale(0.015625)"/>
      </defs>
      <use xlink:href="#DejaVuSans-41"/>
      <use xlink:href="#DejaVuSans-6d" x="68.408203"/>
      <use xlink:href="#DejaVuSans-6f" x="165.820312"/>
      <use xlink:href="#DejaVuSans-75" x="227.001953"/>
      <use xlink:href="#DejaVuSans-6e" x="290.380859"/>
      <use xlink:href="#DejaVuSans-74" x="353.759766"/>
     </g>
    </g>
   </g>
   <g id="line2d_14">
    <path d="M 73.832727 191.130353 
L 78.28005 132.099765 
L 82.727372 116.815059 
L 87.174695 106.800941 
L 91.622017 98.368 
L 96.06934 78.866824 
L 100.516663 58.311529 
L 104.963985 81.502118 
L 109.411308 109.963294 
L 113.85863 102.584471 
L 118.305953 87.299765 
L 122.753275 78.866824 
L 127.200598 80.448 
L 131.64792 76.758588 
L 136.095243 66.217412 
L 140.542565 72.542118 
L 144.989888 54.095059 
L 149.43721 76.758588 
L 153.884533 53.568 
L 158.331856 59.365647 
L 162.779178 74.123294 
L 167.226501 66.217412 
L 171.673823 90.989176 
L 176.121146 89.408 
L 180.568468 71.488 
L 185.015791 93.624471 
L 189.463113 120.504471 
L 193.910436 115.760941 
L 198.357758 105.746824 
L 202.805081 106.800941 
L 207.252403 99.949176 
L 211.699726 137.370353 
L 216.147049 154.236235 
L 220.594371 157.398588 
L 225.041694 147.911529 
L 229.489016 159.506824 
L 233.936339 166.358588 
L 238.383661 192.184471 
L 242.830984 190.076235 
L 247.278306 192.184471 
L 251.725629 194.819765 
L 256.172951 196.928 
L 260.620274 207.996235 
L 265.067597 224.335059 
L 269.514919 217.483294 
L 273.962242 224.862118 
L 278.409564 241.200941 
L 282.856887 226.970353 
L 287.304209 240.673882 
L 291.751532 250.688 
L 296.198854 250.688 
L 300.646177 265.972706 
L 305.093499 274.932706 
L 309.540822 273.351529 
L 313.988144 272.297412 
L 318.435467 268.608 
L 322.88279 273.351529 
L 327.330112 282.838588 
L 331.777435 282.311529 
L 336.224757 284.419765 
L 340.67208 283.365647 
L 345.119402 290.744471 
L 349.566725 292.325647 
L 354.014047 288.109176 
L 358.46137 287.582118 
L 362.908692 294.960941 
L 367.356015 293.906824 
L 371.803337 294.960941 
L 376.25066 295.488 
L 385.145305 295.488 
L 389.592628 294.960941 
L 394.03995 295.488 
L 398.487273 290.217412 
" clip-path="url(#p3e7ddce1f7)" style="fill: none; stroke: #0000ff; stroke-width: 1.5; stroke-linecap: square"/>
   </g>
   <g id="patch_3">
    <path d="M 57.6 307.584 
L 57.6 41.472 
" style="fill: none; stroke: #000000; stroke-width: 0.8; stroke-linejoin: miter; stroke-linecap: square"/>
   </g>
   <g id="patch_4">
    <path d="M 414.72 307.584 
L 414.72 41.472 
" style="fill: none; stroke: #000000; stroke-width: 0.8; stroke-linejoin: miter; stroke-linecap: square"/>
   </g>
   <g id="patch_5">
    <path d="M 57.6 307.584 
L 414.72 307.584 
" style="fill: none; stroke: #000000; stroke-width: 0.8; stroke-linejoin: miter; stroke-linecap: square"/>
   </g>
   <g id="patch_6">
    <path d="M 57.6 41.472 
L 414.72 41.472 
" style="fill: none; stroke: #000000; stroke-width: 0.8; stroke-linejoin: miter; stroke-linecap: square"/>
   </g>
   <g id="text_16">
    <!-- Age distribution of respondents -->
    <g transform="translate(141.645938 35.472) scale(0.12 -0.12)">
     <defs>
      <path id="DejaVuSans-20" transform="scale(0.015625)"/>
      <path id="DejaVuSans-64" d="M 2906 2969 
L 2906 4863 
L 3481 4863 
L 3481 0 
L 2906 0 
L 2906 525 
Q 2725 213 2448 61 
Q 2172 -91 1784 -91 
Q 1150 -91 751 415 
Q 353 922 353 1747 
Q 353 2572 751 3078 
Q 1150 3584 1784 3584 
Q 2172 3584 2448 3432 
Q 2725 3281 2906 2969 
z
M 947 1747 
Q 947 1113 1208 752 
Q 1469 391 1925 391 
Q 2381 391 2643 752 
Q 2906 1113 2906 1747 
Q 2906 2381 2643 2742 
Q 2381 3103 1925 3103 
Q 1469 3103 1208 2742 
Q 947 2381 947 1747 
z
" transform="scale(0.015625)"/>
      <path id="DejaVuSans-69" d="M 603 3500 
L 1178 3500 
L 1178 0 
L 603 0 
L 603 3500 
z
M 603 4863 
L 1178 4863 
L 1178 4134 
L 603 4134 
L 603 4863 
z
" transform="scale(0.015625)"/>
      <path id="DejaVuSans-73" d="M 2834 3397 
L 2834 2853 
Q 2591 2978 2328 3040 
Q 2066 3103 1784 3103 
Q 1356 3103 1142 2972 
Q 928 2841 928 2578 
Q 928 2378 1081 2264 
Q 1234 2150 1697 2047 
L 1894 2003 
Q 2506 1872 2764 1633 
Q 3022 1394 3022 966 
Q 3022 478 2636 193 
Q 2250 -91 1575 -91 
Q 1294 -91 989 -36 
Q 684 19 347 128 
L 347 722 
Q 666 556 975 473 
Q 1284 391 1588 391 
Q 1994 391 2212 530 
Q 2431 669 2431 922 
Q 2431 1156 2273 1281 
Q 2116 1406 1581 1522 
L 1381 1569 
Q 847 1681 609 1914 
Q 372 2147 372 2553 
Q 372 3047 722 3315 
Q 1072 3584 1716 3584 
Q 2034 3584 2315 3537 
Q 2597 3491 2834 3397 
z
" transform="scale(0.015625)"/>
      <path id="DejaVuSans-72" d="M 2631 2963 
Q 2534 3019 2420 3045 
Q 2306 3072 2169 3072 
Q 1681 3072 1420 2755 
Q 1159 2438 1159 1844 
L 1159 0 
L 581 0 
L 581 3500 
L 1159 3500 
L 1159 2956 
Q 1341 3275 1631 3429 
Q 1922 3584 2338 3584 
Q 2397 3584 2469 3576 
Q 2541 3569 2628 3553 
L 2631 2963 
z
" transform="scale(0.015625)"/>
      <path id="DejaVuSans-62" d="M 3116 1747 
Q 3116 2381 2855 2742 
Q 2594 3103 2138 3103 
Q 1681 3103 1420 2742 
Q 1159 2381 1159 1747 
Q 1159 1113 1420 752 
Q 1681 391 2138 391 
Q 2594 391 2855 752 
Q 3116 1113 3116 1747 
z
M 1159 2969 
Q 1341 3281 1617 3432 
Q 1894 3584 2278 3584 
Q 2916 3584 3314 3078 
Q 3713 2572 3713 1747 
Q 3713 922 3314 415 
Q 2916 -91 2278 -91 
Q 1894 -91 1617 61 
Q 1341 213 1159 525 
L 1159 0 
L 581 0 
L 581 4863 
L 1159 4863 
L 1159 2969 
z
" transform="scale(0.015625)"/>
      <path id="DejaVuSans-66" d="M 2375 4863 
L 2375 4384 
L 1825 4384 
Q 1516 4384 1395 4259 
Q 1275 4134 1275 3809 
L 1275 3500 
L 2222 3500 
L 2222 3053 
L 1275 3053 
L 1275 0 
L 697 0 
L 697 3053 
L 147 3053 
L 147 3500 
L 697 3500 
L 697 3744 
Q 697 4328 969 4595 
Q 1241 4863 1831 4863 
L 2375 4863 
z
" transform="scale(0.015625)"/>
      <path id="DejaVuSans-70" d="M 1159 525 
L 1159 -1331 
L 581 -1331 
L 581 3500 
L 1159 3500 
L 1159 2969 
Q 1341 3281 1617 3432 
Q 1894 3584 2278 3584 
Q 2916 3584 3314 3078 
Q 3713 2572 3713 1747 
Q 3713 922 3314 415 
Q 2916 -91 2278 -91 
Q 1894 -91 1617 61 
Q 1341 213 1159 525 
z
M 3116 1747 
Q 3116 2381 2855 2742 
Q 2594 3103 2138 3103 
Q 1681 3103 1420 2742 
Q 1159 2381 1159 1747 
Q 1159 1113 1420 752 
Q 1681 391 2138 391 
Q 2594 391 2855 752 
Q 3116 1113 3116 1747 
z
" transform="scale(0.015625)"/>
     </defs>
     <use xlink:href="#DejaVuSans-41"/>
     <use xlink:href="#DejaVuSans-67" x="68.408203"/>
     <use xlink:href="#DejaVuSans-65" x="131.884766"/>
     <use xlink:href="#DejaVuSans-20" x="193.408203"/>
     <use xlink:href="#DejaVuSans-64" x="225.195312"/>
     <use xlink:href="#DejaVuSans-69" x="288.671875"/>
     <use xlink:href="#DejaVuSans-73" x="316.455078"/>
     <use xlink:href="#DejaVuSans-74" x="368.554688"/>
     <use xlink:href="#DejaVuSans-72" x="407.763672"/>
     <use xlink:href="#DejaVuSans-69" x="448.876953"/>
     <use xlink:href="#DejaVuSans-62" x="476.660156"/>
     <use xlink:href="#DejaVuSans-75" x="540.136719"/>
     <use xlink:href="#DejaVuSans-74" x="603.515625"/>
     <use xlink:href="#DejaVuSans-69" x="642.724609"/>
     <use xlink:href="#DejaVuSans-6f" x="670.507812"/>
     <use xlink:href="#DejaVuSans-6e" x="731.689453"/>
     <use xlink:href="#DejaVuSans-20" x="795.068359"/>
     <use xlink:href="#DejaVuSans-6f" x="826.855469"/>
     <use xlink:href="#DejaVuSans-66" x="888.037109"/>
     <use xlink:href="#DejaVuSans-20" x="923.242188"/>
     <use xlink:href="#DejaVuSans-72" x="955.029297"/>
     <use xlink:href="#DejaVuSans-65" x="993.892578"/>
     <use xlink:href="#DejaVuSans-73" x="1055.416016"/>
     <use xlink:href="#DejaVuSans-70" x="1107.515625"/>
     <use xlink:href="#DejaVuSans-6f" x="1170.992188"/>
     <use xlink:href="#DejaVuSans-6e" x="1232.173828"/>
     <use xlink:href="#DejaVuSans-64" x="1295.552734"/>
     <use xlink:href="#DejaVuSans-65" x="1359.029297"/>
     <use xlink:href="#DejaVuSans-6e" x="1420.552734"/>
     <use xlink:href="#DejaVuSans-74" x="1483.931641"/>
     <use xlink:href="#DejaVuSans-73" x="1523.140625"/>
    </g>
   </g>
  </g>
 </g>
 <defs>
  <clipPath id="p3e7ddce1f7">
   <rect x="57.6" y="41.472" width="357.12" height="266.112"/>
  </clipPath>
 </defs>
</svg>
